<mxfile host="app.diagrams.net" modified="2022-03-05T03:10:50.049Z" agent="5.0 (X11; Linux x86_64) AppleWebKit/537.36 (KHTML, like Gecko) Chrome/98.0.4758.102 Safari/537.36" etag="y_Hy43jM2g5VNZdZQPBE" version="16.4.3" type="github">
  <diagram id="8E8_sRI90_55GNX4Epzp" name="Page-1">
    <mxGraphModel dx="1214" dy="590" grid="1" gridSize="10" guides="1" tooltips="1" connect="1" arrows="1" fold="1" page="1" pageScale="1" pageWidth="1654" pageHeight="2336" math="0" shadow="0">
      <root>
        <mxCell id="0" />
        <mxCell id="1" parent="0" />
        <mxCell id="j7X08_WBb5YQLfzkwUFs-14" value="" style="shape=flexArrow;endArrow=classic;html=1;rounded=0;" edge="1" parent="1">
          <mxGeometry width="50" height="50" relative="1" as="geometry">
            <mxPoint x="30" y="290" as="sourcePoint" />
            <mxPoint x="160" y="290" as="targetPoint" />
          </mxGeometry>
        </mxCell>
        <mxCell id="j7X08_WBb5YQLfzkwUFs-15" value="下一个更高的人" style="text;html=1;strokeColor=none;fillColor=none;align=center;verticalAlign=middle;whiteSpace=wrap;rounded=0;fontSize=18;" vertex="1" parent="1">
          <mxGeometry x="10" y="40" width="190" height="50" as="geometry" />
        </mxCell>
        <mxCell id="j7X08_WBb5YQLfzkwUFs-16" value="" style="group" vertex="1" connectable="0" parent="1">
          <mxGeometry x="210" y="110" width="660" height="280" as="geometry" />
        </mxCell>
        <mxCell id="j7X08_WBb5YQLfzkwUFs-2" value="2" style="shape=umlActor;verticalLabelPosition=bottom;verticalAlign=top;html=1;outlineConnect=0;" vertex="1" parent="j7X08_WBb5YQLfzkwUFs-16">
          <mxGeometry y="140" width="80" height="140" as="geometry" />
        </mxCell>
        <mxCell id="j7X08_WBb5YQLfzkwUFs-3" value="4" style="shape=umlActor;verticalLabelPosition=bottom;verticalAlign=top;html=1;outlineConnect=0;" vertex="1" parent="j7X08_WBb5YQLfzkwUFs-16">
          <mxGeometry x="370" width="150" height="280" as="geometry" />
        </mxCell>
        <mxCell id="j7X08_WBb5YQLfzkwUFs-9" value="1" style="shape=umlActor;verticalLabelPosition=bottom;verticalAlign=top;html=1;outlineConnect=0;aspect=fixed;" vertex="1" parent="j7X08_WBb5YQLfzkwUFs-16">
          <mxGeometry x="130" y="210" width="40" height="70" as="geometry" />
        </mxCell>
        <mxCell id="j7X08_WBb5YQLfzkwUFs-10" value="3" style="shape=umlActor;verticalLabelPosition=bottom;verticalAlign=top;html=1;outlineConnect=0;" vertex="1" parent="j7X08_WBb5YQLfzkwUFs-16">
          <mxGeometry x="240" y="70" width="70" height="210" as="geometry" />
        </mxCell>
        <mxCell id="j7X08_WBb5YQLfzkwUFs-11" value="2" style="shape=umlActor;verticalLabelPosition=bottom;verticalAlign=top;html=1;outlineConnect=0;" vertex="1" parent="j7X08_WBb5YQLfzkwUFs-16">
          <mxGeometry x="580" y="140" width="80" height="140" as="geometry" />
        </mxCell>
        <mxCell id="j7X08_WBb5YQLfzkwUFs-18" value="&lt;h1&gt;双循环&lt;/h1&gt;&lt;p&gt;计算每个人的下一个最高的人&lt;/p&gt;" style="text;html=1;strokeColor=none;fillColor=none;spacing=5;spacingTop=-20;whiteSpace=wrap;overflow=hidden;rounded=0;fontSize=18;" vertex="1" parent="1">
          <mxGeometry x="30" y="470" width="250" height="110" as="geometry" />
        </mxCell>
        <mxCell id="j7X08_WBb5YQLfzkwUFs-20" value="2&lt;br&gt;" style="shape=umlActor;verticalLabelPosition=bottom;verticalAlign=top;html=1;outlineConnect=0;fillColor=#1ba1e2;strokeColor=#006EAF;fontColor=#0A0A0A;" vertex="1" parent="1">
          <mxGeometry x="200" y="750" width="80" height="140" as="geometry" />
        </mxCell>
        <mxCell id="j7X08_WBb5YQLfzkwUFs-21" value="4" style="shape=umlActor;verticalLabelPosition=bottom;verticalAlign=top;html=1;outlineConnect=0;" vertex="1" parent="1">
          <mxGeometry x="570" y="610" width="150" height="280" as="geometry" />
        </mxCell>
        <mxCell id="j7X08_WBb5YQLfzkwUFs-22" value="1" style="shape=umlActor;verticalLabelPosition=bottom;verticalAlign=top;html=1;outlineConnect=0;aspect=fixed;fillColor=#f0a30a;strokeColor=#BD7000;fontColor=#000000;" vertex="1" parent="1">
          <mxGeometry x="330" y="820" width="40" height="70" as="geometry" />
        </mxCell>
        <mxCell id="j7X08_WBb5YQLfzkwUFs-23" value="3" style="shape=umlActor;verticalLabelPosition=bottom;verticalAlign=top;html=1;outlineConnect=0;" vertex="1" parent="1">
          <mxGeometry x="440" y="680" width="70" height="210" as="geometry" />
        </mxCell>
        <mxCell id="j7X08_WBb5YQLfzkwUFs-24" value="2" style="shape=umlActor;verticalLabelPosition=bottom;verticalAlign=top;html=1;outlineConnect=0;" vertex="1" parent="1">
          <mxGeometry x="780" y="750" width="80" height="140" as="geometry" />
        </mxCell>
        <mxCell id="j7X08_WBb5YQLfzkwUFs-25" value="2" style="shape=umlActor;verticalLabelPosition=bottom;verticalAlign=top;html=1;outlineConnect=0;fillColor=#1ba1e2;strokeColor=#006EAF;fontColor=#0A0A0A;" vertex="1" parent="1">
          <mxGeometry x="200" y="1090" width="80" height="140" as="geometry" />
        </mxCell>
        <mxCell id="j7X08_WBb5YQLfzkwUFs-26" value="4" style="shape=umlActor;verticalLabelPosition=bottom;verticalAlign=top;html=1;outlineConnect=0;" vertex="1" parent="1">
          <mxGeometry x="570" y="950" width="150" height="280" as="geometry" />
        </mxCell>
        <mxCell id="j7X08_WBb5YQLfzkwUFs-27" value="1" style="shape=umlActor;verticalLabelPosition=bottom;verticalAlign=top;html=1;outlineConnect=0;aspect=fixed;fillColor=#e51400;strokeColor=#B20000;fontColor=#000000;" vertex="1" parent="1">
          <mxGeometry x="330" y="1160" width="40" height="70" as="geometry" />
        </mxCell>
        <mxCell id="j7X08_WBb5YQLfzkwUFs-28" value="3" style="shape=umlActor;verticalLabelPosition=bottom;verticalAlign=top;html=1;outlineConnect=0;fillColor=#f0a30a;strokeColor=#BD7000;fontColor=#000000;" vertex="1" parent="1">
          <mxGeometry x="440" y="1020" width="70" height="210" as="geometry" />
        </mxCell>
        <mxCell id="j7X08_WBb5YQLfzkwUFs-29" value="2" style="shape=umlActor;verticalLabelPosition=bottom;verticalAlign=top;html=1;outlineConnect=0;" vertex="1" parent="1">
          <mxGeometry x="780" y="1090" width="80" height="140" as="geometry" />
        </mxCell>
        <mxCell id="j7X08_WBb5YQLfzkwUFs-35" value="2" style="shape=umlActor;verticalLabelPosition=bottom;verticalAlign=top;html=1;outlineConnect=0;fillColor=#1ba1e2;strokeColor=#006EAF;fontColor=#000000;" vertex="1" parent="1">
          <mxGeometry x="200" y="1420" width="80" height="140" as="geometry" />
        </mxCell>
        <mxCell id="j7X08_WBb5YQLfzkwUFs-36" value="4" style="shape=umlActor;verticalLabelPosition=bottom;verticalAlign=top;html=1;outlineConnect=0;" vertex="1" parent="1">
          <mxGeometry x="570" y="1280" width="150" height="280" as="geometry" />
        </mxCell>
        <mxCell id="j7X08_WBb5YQLfzkwUFs-37" value="1" style="shape=umlActor;verticalLabelPosition=bottom;verticalAlign=top;html=1;outlineConnect=0;aspect=fixed;fillColor=#e51400;strokeColor=#B20000;fontColor=#000000;" vertex="1" parent="1">
          <mxGeometry x="330" y="1490" width="40" height="70" as="geometry" />
        </mxCell>
        <mxCell id="j7X08_WBb5YQLfzkwUFs-38" value="3" style="shape=umlActor;verticalLabelPosition=bottom;verticalAlign=top;html=1;outlineConnect=0;fillColor=#008a00;strokeColor=#005700;fontColor=#000000;" vertex="1" parent="1">
          <mxGeometry x="440" y="1350" width="70" height="210" as="geometry" />
        </mxCell>
        <mxCell id="j7X08_WBb5YQLfzkwUFs-39" value="2" style="shape=umlActor;verticalLabelPosition=bottom;verticalAlign=top;html=1;outlineConnect=0;" vertex="1" parent="1">
          <mxGeometry x="780" y="1420" width="80" height="140" as="geometry" />
        </mxCell>
        <mxCell id="j7X08_WBb5YQLfzkwUFs-42" value="2&lt;br&gt;" style="shape=umlActor;verticalLabelPosition=bottom;verticalAlign=top;html=1;outlineConnect=0;fillColor=#1ba1e2;strokeColor=#006EAF;fontColor=#0A0A0A;" vertex="1" parent="1">
          <mxGeometry x="200" y="1770" width="80" height="140" as="geometry" />
        </mxCell>
        <mxCell id="j7X08_WBb5YQLfzkwUFs-43" value="4" style="shape=umlActor;verticalLabelPosition=bottom;verticalAlign=top;html=1;outlineConnect=0;" vertex="1" parent="1">
          <mxGeometry x="570" y="1630" width="150" height="280" as="geometry" />
        </mxCell>
        <mxCell id="j7X08_WBb5YQLfzkwUFs-44" value="1" style="shape=umlActor;verticalLabelPosition=bottom;verticalAlign=top;html=1;outlineConnect=0;aspect=fixed;fillColor=#1ba1e2;strokeColor=#006EAF;fontColor=#000000;" vertex="1" parent="1">
          <mxGeometry x="330" y="1840" width="40" height="70" as="geometry" />
        </mxCell>
        <mxCell id="j7X08_WBb5YQLfzkwUFs-45" value="3" style="shape=umlActor;verticalLabelPosition=bottom;verticalAlign=top;html=1;outlineConnect=0;fillColor=#f0a30a;fontColor=#000000;strokeColor=#BD7000;" vertex="1" parent="1">
          <mxGeometry x="440" y="1700" width="70" height="210" as="geometry" />
        </mxCell>
        <mxCell id="j7X08_WBb5YQLfzkwUFs-46" value="2" style="shape=umlActor;verticalLabelPosition=bottom;verticalAlign=top;html=1;outlineConnect=0;" vertex="1" parent="1">
          <mxGeometry x="780" y="1770" width="80" height="140" as="geometry" />
        </mxCell>
        <mxCell id="j7X08_WBb5YQLfzkwUFs-47" value="2&lt;br&gt;" style="shape=umlActor;verticalLabelPosition=bottom;verticalAlign=top;html=1;outlineConnect=0;fillColor=#1ba1e2;strokeColor=#006EAF;fontColor=#0A0A0A;" vertex="1" parent="1">
          <mxGeometry x="200" y="2100" width="80" height="140" as="geometry" />
        </mxCell>
        <mxCell id="j7X08_WBb5YQLfzkwUFs-48" value="4" style="shape=umlActor;verticalLabelPosition=bottom;verticalAlign=top;html=1;outlineConnect=0;" vertex="1" parent="1">
          <mxGeometry x="570" y="1960" width="150" height="280" as="geometry" />
        </mxCell>
        <mxCell id="j7X08_WBb5YQLfzkwUFs-49" value="1" style="shape=umlActor;verticalLabelPosition=bottom;verticalAlign=top;html=1;outlineConnect=0;aspect=fixed;fillColor=#1ba1e2;strokeColor=#006EAF;fontColor=#000000;" vertex="1" parent="1">
          <mxGeometry x="330" y="2170" width="40" height="70" as="geometry" />
        </mxCell>
        <mxCell id="j7X08_WBb5YQLfzkwUFs-50" value="3" style="shape=umlActor;verticalLabelPosition=bottom;verticalAlign=top;html=1;outlineConnect=0;fillColor=#008a00;fontColor=#000000;strokeColor=#005700;" vertex="1" parent="1">
          <mxGeometry x="440" y="2030" width="70" height="210" as="geometry" />
        </mxCell>
        <mxCell id="j7X08_WBb5YQLfzkwUFs-51" value="2" style="shape=umlActor;verticalLabelPosition=bottom;verticalAlign=top;html=1;outlineConnect=0;" vertex="1" parent="1">
          <mxGeometry x="780" y="2100" width="80" height="140" as="geometry" />
        </mxCell>
        <mxCell id="j7X08_WBb5YQLfzkwUFs-52" value="第二个人" style="shape=tape;whiteSpace=wrap;html=1;fontSize=18;fontColor=#000000;" vertex="1" parent="1">
          <mxGeometry x="120" y="1600" width="850" height="20" as="geometry" />
        </mxCell>
        <mxCell id="j7X08_WBb5YQLfzkwUFs-59" value="第一个人" style="shape=tape;whiteSpace=wrap;html=1;fontSize=18;fontColor=#000000;" vertex="1" parent="1">
          <mxGeometry x="110" y="580" width="850" height="20" as="geometry" />
        </mxCell>
        <mxCell id="j7X08_WBb5YQLfzkwUFs-60" value="第三个人" style="shape=tape;whiteSpace=wrap;html=1;fontSize=18;fontColor=#000000;" vertex="1" parent="1">
          <mxGeometry x="100" y="2280" width="850" height="20" as="geometry" />
        </mxCell>
        <mxCell id="j7X08_WBb5YQLfzkwUFs-61" value="2&lt;br&gt;" style="shape=umlActor;verticalLabelPosition=bottom;verticalAlign=top;html=1;outlineConnect=0;fillColor=#1ba1e2;strokeColor=#006EAF;fontColor=#0A0A0A;" vertex="1" parent="1">
          <mxGeometry x="200" y="2460" width="80" height="140" as="geometry" />
        </mxCell>
        <mxCell id="j7X08_WBb5YQLfzkwUFs-62" value="4" style="shape=umlActor;verticalLabelPosition=bottom;verticalAlign=top;html=1;outlineConnect=0;fillColor=#f0a30a;fontColor=#000000;strokeColor=#BD7000;" vertex="1" parent="1">
          <mxGeometry x="570" y="2320" width="150" height="280" as="geometry" />
        </mxCell>
        <mxCell id="j7X08_WBb5YQLfzkwUFs-63" value="1" style="shape=umlActor;verticalLabelPosition=bottom;verticalAlign=top;html=1;outlineConnect=0;aspect=fixed;fillColor=#1ba1e2;strokeColor=#006EAF;fontColor=#000000;" vertex="1" parent="1">
          <mxGeometry x="330" y="2530" width="40" height="70" as="geometry" />
        </mxCell>
        <mxCell id="j7X08_WBb5YQLfzkwUFs-64" value="3" style="shape=umlActor;verticalLabelPosition=bottom;verticalAlign=top;html=1;outlineConnect=0;fillColor=#1ba1e2;fontColor=#000000;strokeColor=#006EAF;" vertex="1" parent="1">
          <mxGeometry x="440" y="2390" width="70" height="210" as="geometry" />
        </mxCell>
        <mxCell id="j7X08_WBb5YQLfzkwUFs-65" value="2" style="shape=umlActor;verticalLabelPosition=bottom;verticalAlign=top;html=1;outlineConnect=0;" vertex="1" parent="1">
          <mxGeometry x="780" y="2460" width="80" height="140" as="geometry" />
        </mxCell>
        <mxCell id="j7X08_WBb5YQLfzkwUFs-66" value="2&lt;br&gt;" style="shape=umlActor;verticalLabelPosition=bottom;verticalAlign=top;html=1;outlineConnect=0;fillColor=#1ba1e2;strokeColor=#006EAF;fontColor=#0A0A0A;" vertex="1" parent="1">
          <mxGeometry x="215" y="2820" width="80" height="140" as="geometry" />
        </mxCell>
        <mxCell id="j7X08_WBb5YQLfzkwUFs-67" value="4" style="shape=umlActor;verticalLabelPosition=bottom;verticalAlign=top;html=1;outlineConnect=0;fillColor=#008a00;fontColor=#000000;strokeColor=#005700;" vertex="1" parent="1">
          <mxGeometry x="585" y="2680" width="150" height="280" as="geometry" />
        </mxCell>
        <mxCell id="j7X08_WBb5YQLfzkwUFs-68" value="1" style="shape=umlActor;verticalLabelPosition=bottom;verticalAlign=top;html=1;outlineConnect=0;aspect=fixed;fillColor=#1ba1e2;strokeColor=#006EAF;fontColor=#000000;" vertex="1" parent="1">
          <mxGeometry x="345" y="2890" width="40" height="70" as="geometry" />
        </mxCell>
        <mxCell id="j7X08_WBb5YQLfzkwUFs-69" value="3" style="shape=umlActor;verticalLabelPosition=bottom;verticalAlign=top;html=1;outlineConnect=0;fillColor=#1ba1e2;fontColor=#000000;strokeColor=#006EAF;" vertex="1" parent="1">
          <mxGeometry x="455" y="2750" width="70" height="210" as="geometry" />
        </mxCell>
        <mxCell id="j7X08_WBb5YQLfzkwUFs-70" value="2" style="shape=umlActor;verticalLabelPosition=bottom;verticalAlign=top;html=1;outlineConnect=0;" vertex="1" parent="1">
          <mxGeometry x="795" y="2820" width="80" height="140" as="geometry" />
        </mxCell>
        <mxCell id="j7X08_WBb5YQLfzkwUFs-71" value="第四个人" style="shape=tape;whiteSpace=wrap;html=1;fontSize=18;fontColor=#000000;" vertex="1" parent="1">
          <mxGeometry x="110" y="3010" width="850" height="20" as="geometry" />
        </mxCell>
        <mxCell id="j7X08_WBb5YQLfzkwUFs-72" value="2&lt;br&gt;" style="shape=umlActor;verticalLabelPosition=bottom;verticalAlign=top;html=1;outlineConnect=0;fillColor=#1ba1e2;strokeColor=#006EAF;fontColor=#0A0A0A;" vertex="1" parent="1">
          <mxGeometry x="215" y="3220" width="80" height="140" as="geometry" />
        </mxCell>
        <mxCell id="j7X08_WBb5YQLfzkwUFs-73" value="4" style="shape=umlActor;verticalLabelPosition=bottom;verticalAlign=top;html=1;outlineConnect=0;fillColor=#1ba1e2;fontColor=#000000;strokeColor=#006EAF;" vertex="1" parent="1">
          <mxGeometry x="585" y="3080" width="150" height="280" as="geometry" />
        </mxCell>
        <mxCell id="j7X08_WBb5YQLfzkwUFs-74" value="1" style="shape=umlActor;verticalLabelPosition=bottom;verticalAlign=top;html=1;outlineConnect=0;aspect=fixed;fillColor=#1ba1e2;strokeColor=#006EAF;fontColor=#000000;" vertex="1" parent="1">
          <mxGeometry x="345" y="3290" width="40" height="70" as="geometry" />
        </mxCell>
        <mxCell id="j7X08_WBb5YQLfzkwUFs-75" value="3" style="shape=umlActor;verticalLabelPosition=bottom;verticalAlign=top;html=1;outlineConnect=0;fillColor=#1ba1e2;fontColor=#000000;strokeColor=#006EAF;" vertex="1" parent="1">
          <mxGeometry x="455" y="3150" width="70" height="210" as="geometry" />
        </mxCell>
        <mxCell id="j7X08_WBb5YQLfzkwUFs-76" value="2" style="shape=umlActor;verticalLabelPosition=bottom;verticalAlign=top;html=1;outlineConnect=0;fillColor=#f0a30a;fontColor=#000000;strokeColor=#BD7000;" vertex="1" parent="1">
          <mxGeometry x="795" y="3220" width="80" height="140" as="geometry" />
        </mxCell>
        <mxCell id="j7X08_WBb5YQLfzkwUFs-77" value="2&lt;br&gt;" style="shape=umlActor;verticalLabelPosition=bottom;verticalAlign=top;html=1;outlineConnect=0;fillColor=#1ba1e2;strokeColor=#006EAF;fontColor=#0A0A0A;" vertex="1" parent="1">
          <mxGeometry x="240" y="3570" width="80" height="140" as="geometry" />
        </mxCell>
        <mxCell id="j7X08_WBb5YQLfzkwUFs-78" value="4" style="shape=umlActor;verticalLabelPosition=bottom;verticalAlign=top;html=1;outlineConnect=0;fillColor=#1ba1e2;fontColor=#000000;strokeColor=#006EAF;" vertex="1" parent="1">
          <mxGeometry x="610" y="3430" width="150" height="280" as="geometry" />
        </mxCell>
        <mxCell id="j7X08_WBb5YQLfzkwUFs-79" value="1" style="shape=umlActor;verticalLabelPosition=bottom;verticalAlign=top;html=1;outlineConnect=0;aspect=fixed;fillColor=#1ba1e2;strokeColor=#006EAF;fontColor=#000000;" vertex="1" parent="1">
          <mxGeometry x="370" y="3640" width="40" height="70" as="geometry" />
        </mxCell>
        <mxCell id="j7X08_WBb5YQLfzkwUFs-80" value="3" style="shape=umlActor;verticalLabelPosition=bottom;verticalAlign=top;html=1;outlineConnect=0;fillColor=#1ba1e2;fontColor=#000000;strokeColor=#006EAF;" vertex="1" parent="1">
          <mxGeometry x="480" y="3500" width="70" height="210" as="geometry" />
        </mxCell>
        <mxCell id="j7X08_WBb5YQLfzkwUFs-81" value="2" style="shape=umlActor;verticalLabelPosition=bottom;verticalAlign=top;html=1;outlineConnect=0;fillColor=#e51400;fontColor=#000000;strokeColor=#B20000;" vertex="1" parent="1">
          <mxGeometry x="820" y="3570" width="80" height="140" as="geometry" />
        </mxCell>
        <mxCell id="j7X08_WBb5YQLfzkwUFs-82" value="第五个人" style="shape=tape;whiteSpace=wrap;html=1;fontSize=18;fontColor=#000000;" vertex="1" parent="1">
          <mxGeometry x="115" y="3760" width="850" height="20" as="geometry" />
        </mxCell>
        <mxCell id="j7X08_WBb5YQLfzkwUFs-83" value="2&lt;br&gt;" style="shape=umlActor;verticalLabelPosition=bottom;verticalAlign=top;html=1;outlineConnect=0;fillColor=#1ba1e2;strokeColor=#006EAF;fontColor=#0A0A0A;" vertex="1" parent="1">
          <mxGeometry x="240" y="3930" width="80" height="140" as="geometry" />
        </mxCell>
        <mxCell id="j7X08_WBb5YQLfzkwUFs-84" value="4" style="shape=umlActor;verticalLabelPosition=bottom;verticalAlign=top;html=1;outlineConnect=0;fillColor=#b0e3e6;strokeColor=#0e8088;" vertex="1" parent="1">
          <mxGeometry x="610" y="3790" width="150" height="280" as="geometry" />
        </mxCell>
        <mxCell id="j7X08_WBb5YQLfzkwUFs-85" value="1" style="shape=umlActor;verticalLabelPosition=bottom;verticalAlign=top;html=1;outlineConnect=0;aspect=fixed;fillColor=#1ba1e2;strokeColor=#006EAF;fontColor=#000000;" vertex="1" parent="1">
          <mxGeometry x="370" y="4000" width="40" height="70" as="geometry" />
        </mxCell>
        <mxCell id="j7X08_WBb5YQLfzkwUFs-86" value="3" style="shape=umlActor;verticalLabelPosition=bottom;verticalAlign=top;html=1;outlineConnect=0;fillColor=#1ba1e2;fontColor=#000000;strokeColor=#006EAF;" vertex="1" parent="1">
          <mxGeometry x="480" y="3860" width="70" height="210" as="geometry" />
        </mxCell>
        <mxCell id="j7X08_WBb5YQLfzkwUFs-87" value="2" style="shape=umlActor;verticalLabelPosition=bottom;verticalAlign=top;html=1;outlineConnect=0;fillColor=#b0e3e6;strokeColor=#0e8088;" vertex="1" parent="1">
          <mxGeometry x="820" y="3930" width="80" height="140" as="geometry" />
        </mxCell>
      </root>
    </mxGraphModel>
  </diagram>
</mxfile>
